<svg xmlns="http://www.w3.org/2000/svg" width="512" height="512" viewBox="0 0 512 512" fill="none" role="img" aria-labelledby="title desc">
  <title id="title">Nalar Cipta app icon</title>
  <desc id="desc">Nalar Cipta white split mark on cobalt blue.</desc>
  <rect width="512" height="512" fill="#3454D1"/>
  <g transform="translate(92 92) scale(2.56)">
    <path d="M49 12C54.6 6.4 60 10.4 60 18.3V43.8C60 48.3 58.2 52.6 55 55.8L45 65.8C42.7 68.1 42.7 71.9 45 74.2L55 84.2C58.2 87.4 60 91.7 60 96.2V109.7C60 118 50 122.1 44.1 116.2L15.6 87.7C1.6 73.7 1.6 51.3 15.6 37.3L49 12Z" fill="#FFFFFF"/>
    <path d="M79 12C73.4 6.4 68 10.4 68 18.3V43.8C68 48.3 69.8 52.6 73 55.8L83 65.8C85.3 68.1 85.3 71.9 83 74.2L73 84.2C69.8 87.4 68 91.7 68 96.2V109.7C68 118 78 122.1 83.9 116.2L112.4 87.7C126.4 73.7 126.4 51.3 112.4 37.3L79 12Z" fill="#FFFFFF"/>
  </g>
</svg>
